TITLE "Transistor Blast [disc 3] 1978-79 Live In Concert Recordings"
PERFORMER "XTC"
CATALOG 0711297155228
REM DATE "1996"
REM DISCID 93094C0C
FILE "XTC - Transistor Blast [disc 3] 1978-79 Live In Concert Recordings.flac" WAVE
  TRACK 01 AUDIO
    TITLE "Radio's In Motion"
    PERFORMER "XTC"
    ISRC GBCEJ7800003
    INDEX 01 00:00:00
  TRACK 02 AUDIO
    TITLE "Crosswires"
    PERFORMER "XTC"
    ISRC GBCEJ7800004
    INDEX 01 03:21:50
  TRACK 03 AUDIO
    TITLE "Science Friction"
    PERFORMER "XTC"
    ISRC GBCEJ7900007
    INDEX 01 05:27:65
  TRACK 04 AUDIO
    TITLE "Statue Of Liberty"
    PERFORMER "XTC"
    ISRC GBCEJ7800005
    INDEX 01 09:02:02
  TRACK 05 AUDIO
    TITLE "The Rhythm"
    PERFORMER "XTC"
    ISRC GBCEJ7900008
    INDEX 01 12:00:57
  TRACK 06 AUDIO
    TITLE "I'll Set Myself On Fire"
    PERFORMER "XTC"
    ISRC GBCEJ7800006
    INDEX 01 14:55:62
  TRACK 07 AUDIO
    TITLE "Newtown Animal In A Furnished Cage"
    PERFORMER "XTC"
    ISRC GBCEJ7800007
    INDEX 01 18:23:40
  TRACK 08 AUDIO
    TITLE "All Along The Watchtower"
    PERFORMER "XTC"
    ISRC GBCEJ7800008
    INDEX 01 20:18:62
  TRACK 09 AUDIO
    TITLE "Beatown"
    PERFORMER "XTC"
    ISRC GBCEJ7900009
    INDEX 01 26:16:70
  TRACK 10 AUDIO
    TITLE "This Is Pop"
    PERFORMER "XTC"
    ISRC GBCEJ7800009
    INDEX 01 29:41:00
  TRACK 11 AUDIO
    TITLE "Danceband"
    PERFORMER "XTC"
    ISRC GBCEJ7800010
    INDEX 01 32:18:17
  TRACK 12 AUDIO
    TITLE "Neon Shuffle"
    PERFORMER "XTC"
    ISRC GBCEJ7800011
    INDEX 01 35:07:22
